<svg version="1.1" id="Layer_1" xmlns="http://www.w3.org/2000/svg" xmlns:xlink="http://www.w3.org/1999/xlink" x="0px" y="0px"
	 width="100%" viewBox="0 0 382 1080" enable-background="new 0 0 382 1080" xml:space="preserve">
<path fill="#31241B" opacity="1.000000" stroke="none" 
	d="
M383.000000,455.000000 
	C383.000000,663.616577 383.000000,872.233154 383.000000,1080.924805 
	C255.747360,1080.924805 128.494644,1080.924805 1.000000,1080.924805 
	C1.000000,830.640869 1.000000,580.281677 1.412297,329.380310 
	C30.815948,332.869781 50.706043,348.867798 61.717415,375.611633 
	C69.480545,394.466309 66.950813,413.912323 62.739109,433.157990 
	C56.656681,460.952087 45.314159,486.990540 35.629082,513.578308 
	C19.588591,557.613159 15.399653,602.106079 31.179564,647.108032 
	C39.027031,669.487854 51.757496,688.467346 72.443504,701.248047 
	C105.022217,721.376709 146.379227,712.631653 167.821487,681.046326 
	C181.120270,661.456604 185.515808,639.106384 186.832535,616.155823 
	C187.995544,595.884583 187.794525,575.530090 188.012909,555.210510 
	C188.652084,495.735413 189.513336,436.260040 189.644760,376.783356 
	C189.705826,349.150787 187.941467,321.518555 187.643234,293.879303 
	C187.437683,274.830231 189.653503,255.930542 195.758377,237.746872 
	C204.847794,210.673660 222.870422,193.608719 251.620316,188.957550 
	C266.394928,186.567291 280.833740,188.290771 295.052887,192.620865 
	C327.578278,202.525620 344.497986,224.424698 343.630066,258.393524 
	C343.224731,274.258759 340.192261,290.124634 337.515656,305.848114 
	C333.549194,329.149048 328.295471,352.238129 324.631805,375.580963 
	C322.030853,392.152924 323.837433,408.661072 332.465729,423.541687 
	C343.666168,442.858337 361.108734,452.618317 383.000000,455.000000 
z"/>
<path fill="#D29046" opacity="1.000000" stroke="none" 
	d="
M383.000000,454.531342 
	C361.108734,452.618317 343.666168,442.858337 332.465729,423.541687 
	C323.837433,408.661072 322.030853,392.152924 324.631805,375.580963 
	C328.295471,352.238129 333.549194,329.149048 337.515656,305.848114 
	C340.192261,290.124634 343.224731,274.258759 343.630066,258.393524 
	C344.497986,224.424698 327.578278,202.525620 295.052887,192.620865 
	C280.833740,188.290771 266.394928,186.567291 251.620316,188.957550 
	C222.870422,193.608719 204.847794,210.673660 195.758377,237.746872 
	C189.653503,255.930542 187.437683,274.830231 187.643234,293.879303 
	C187.941467,321.518555 189.705826,349.150787 189.644760,376.783356 
	C189.513336,436.260040 188.652084,495.735413 188.012909,555.210510 
	C187.794525,575.530090 187.995544,595.884583 186.832535,616.155823 
	C185.515808,639.106384 181.120270,661.456604 167.821487,681.046326 
	C146.379227,712.631653 105.022217,721.376709 72.443504,701.248047 
	C51.757496,688.467346 39.027031,669.487854 31.179564,647.108032 
	C15.399653,602.106079 19.588591,557.613159 35.629082,513.578308 
	C45.314159,486.990540 56.656681,460.952087 62.739109,433.157990 
	C66.950813,413.912323 69.480545,394.466309 61.717415,375.611633 
	C50.706043,348.867798 30.815948,332.869781 1.412297,328.919067 
	C1.000000,219.744720 1.000000,110.489433 1.000000,1.000000 
	C95.687431,1.000000 190.375061,1.000000 285.722931,1.278676 
	C289.271362,2.934495 292.145538,5.460835 295.050110,5.496305 
	C310.253998,5.681963 325.464966,5.155580 340.674713,5.033205 
	C354.782318,4.919699 368.891510,5.003230 383.000000,5.000000 
	C383.000000,154.687561 383.000000,304.375122 383.000000,454.531342 
z"/>
<path fill="#CB9154" opacity="1.000000" stroke="none" 
	d="
M383.000000,4.666667 
	C368.891510,5.003230 354.782318,4.919699 340.674713,5.033205 
	C325.464966,5.155580 310.253998,5.681963 295.050110,5.496305 
	C292.145538,5.460835 289.271362,2.934495 286.191589,1.278676 
	C286.444458,1.000000 286.888885,1.000000 287.993378,1.270168 
	C291.449738,1.803952 294.245972,2.294902 297.042389,2.296061 
	C325.355103,2.307797 353.667816,2.239499 382.137939,2.343361 
	C382.514252,2.684252 382.749146,2.853230 383.000000,3.000000 
	C383.000000,3.444444 383.000000,3.888889 383.000000,4.666667 
z"/>
<path fill="#613102" opacity="1.000000" stroke="none" 
	d="
M381.980530,2.193655 
	C353.667816,2.239499 325.355103,2.307797 297.042389,2.296061 
	C294.245972,2.294902 291.449738,1.803952 288.326721,1.270168 
	C319.666656,1.000000 351.333344,1.000000 382.739868,1.520755 
	C382.313324,2.092225 382.146912,2.142940 381.980530,2.193655 
z"/>
<path fill="#AC7A45" opacity="1.000000" stroke="none" 
	d="
M382.137939,2.343361 
	C382.146912,2.142940 382.313324,2.092225 382.739868,2.020755 
	C383.000000,2.000000 383.000000,2.500000 383.000000,2.750000 
	C382.749146,2.853230 382.514252,2.684252 382.137939,2.343361 
z"/>
</svg>