<svg version="1.1" id="Layer_1" xmlns="http://www.w3.org/2000/svg" xmlns:xlink="http://www.w3.org/1999/xlink" x="0px" y="0px"
	 width="100%" viewBox="0 0 382 1080" enable-background="new 0 0 382 1080" xml:space="preserve">
<path fill="#BA742F" opacity="1.000000" stroke="none" 
	d="
M279.000000,1081.000000 
	C186.365204,1081.000000 93.730408,1081.000000 1.000000,1081.000000 
	C1.000000,758.975952 1.000000,436.951843 1.370060,114.391678 
	C18.035297,108.158653 34.837463,104.399834 52.011723,103.516701 
	C109.768784,100.546745 159.705872,118.742485 199.644501,161.116989 
	C242.207977,206.276443 257.016052,271.178467 228.704041,333.031281 
	C216.359207,360.000793 199.643082,384.222778 183.000687,408.570740 
	C167.415070,431.372589 151.843872,454.224121 137.365952,477.731079 
	C125.025841,497.767029 118.485306,520.196167 118.424156,543.767700 
	C118.318069,584.653870 137.483017,615.622375 170.234055,638.845398 
	C186.907089,650.667786 206.223694,655.865967 225.758347,660.422058 
	C245.048920,664.921265 264.554504,668.671997 283.575256,674.115723 
	C315.230194,683.175232 343.145630,699.035217 365.113586,724.041565 
	C371.670410,731.505249 377.070129,739.985535 383.000000,748.000000 
	C383.000000,796.357422 383.000000,844.714844 382.749512,893.757935 
	C367.619629,919.271118 345.840179,936.681396 321.585114,951.559631 
	C311.955688,957.466431 302.719604,964.023376 293.394684,970.415955 
	C263.897705,990.637207 261.701996,1038.468018 279.519958,1059.322754 
	C284.351257,1064.977539 284.381012,1071.469971 280.513733,1077.899048 
	C279.923157,1078.880981 279.500366,1079.963867 279.000000,1081.000000 
z"/>
<path fill="#FFBF77" opacity="1.000000" stroke="none" 
	d="
M383.000000,747.531372 
	C377.070129,739.985535 371.670410,731.505249 365.113586,724.041565 
	C343.145630,699.035217 315.230194,683.175232 283.575256,674.115723 
	C264.554504,668.671997 245.048920,664.921265 225.758347,660.422058 
	C206.223694,655.865967 186.907089,650.667786 170.234055,638.845398 
	C137.483017,615.622375 118.318069,584.653870 118.424156,543.767700 
	C118.485306,520.196167 125.025841,497.767029 137.365952,477.731079 
	C151.843872,454.224121 167.415070,431.372589 183.000687,408.570740 
	C199.643082,384.222778 216.359207,360.000793 228.704041,333.031281 
	C257.016052,271.178467 242.207977,206.276443 199.644501,161.116989 
	C159.705872,118.742485 109.768784,100.546745 52.011723,103.516701 
	C34.837463,104.399834 18.035297,108.158653 1.370060,113.927795 
	C1.000000,76.346603 1.000000,38.693214 1.000000,1.019910 
	C128.275177,1.019910 255.550369,1.019910 383.000000,1.019910 
	C383.000000,249.687531 383.000000,498.375122 383.000000,747.531372 
z"/>
<path fill="#FFBF77" opacity="1.000000" stroke="none" 
	d="
M279.468658,1081.000000 
	C279.500366,1079.963867 279.923157,1078.880981 280.513733,1077.899048 
	C284.381012,1071.469971 284.351257,1064.977539 279.519958,1059.322754 
	C261.701996,1038.468018 263.897705,990.637207 293.394684,970.415955 
	C302.719604,964.023376 311.955688,957.466431 321.585114,951.559631 
	C345.840179,936.681396 367.619629,919.271118 382.749512,894.221802 
	C383.000000,956.239502 383.000000,1018.479004 383.000000,1081.000000 
	C348.646271,1081.000000 314.291809,1081.000000 279.468658,1081.000000 
z"/>
</svg>